<?xml version="1.0" encoding="UTF-8"?>
<svg width="140px" height="100px" viewBox="0 0 140 100" version="1.1" xmlns="http://www.w3.org/2000/svg" xmlns:xlink="http://www.w3.org/1999/xlink">
    <!-- Generator: Sketch 51.3 (57544) - http://www.bohemiancoding.com/sketch -->
    <title>icon_homepage_floating</title>
    <desc>Created with Sketch.</desc>
    <defs></defs>
    <g id="icon_homepage_floating" stroke="none" stroke-width="1" fill="none" fill-rule="evenodd">
        <g transform="translate(70.000000, 50.000000) rotate(-90.000000) translate(-70.000000, -50.000000) translate(20.000000, -20.000000)">
            <g transform="translate(0.000000, 0.000000)">
                <path d="M24,0 L76,0 C89.254834,-2.4348735e-15 100,10.745166 100,24 L100,140 L0,140 L0,24 C-1.623249e-15,10.745166 10.745166,1.66457282e-14 24,1.42108547e-14 Z" id="Rectangle" fill-opacity="0.88" fill="#FFFFFF"></path>
                <path d="M73.5016492,94.5016492 L73.5016492,85.50284 C73.5016492,82.7307514 71.2516492,80.5016492 68.5016492,80.5016492 C65.7516492,80.5016492 63.5016492,82.7307514 63.5016492,85.50284 L63.5016492,94.5016492 L54.2813513,94.5016492 C51.6414289,94.5016492 49.492616,92.3415611 49.492616,89.7014533 L49.492616,72.114037 L47.1415717,72.114037 C45.701614,72.114037 44.5016492,70.9139881 44.5016492,69.4739293 C44.5016492,68.9339073 44.6816439,68.4538877 44.9216369,68.0338705 L66.3410077,48.6530797 C67.180983,47.4530307 68.8009354,47.1530184 70.0009002,47.9330503 C70.3008914,48.1130576 70.5408843,48.3530674 70.720879,48.6530797 L92.0802517,67.9738681 C92.6202358,68.8139023 92.6202358,69.8939464 92.2002481,70.7339807 C91.7802604,71.574015 90.8914106,72.114037 89.8714405,72.114037 L87.550382,72.114037 L87.550382,89.7014533 C87.550382,92.3415611 85.4804455,94.5016492 82.8405231,94.5016492 L73.5016492,94.5016492 Z" id="icon" fill="#666666" transform="translate(68.501649, 71.000000) rotate(-270.000000) translate(-68.501649, -71.000000) "></path>
                <text id="扶뒬못" transform="translate(23.000000, 71.000000) rotate(-270.000000) translate(-23.000000, -71.000000) " font-family="PingFangSC-Semibold, PingFang SC" font-size="24" font-weight="500" line-spacing="28" fill="#666666">
                    <tspan x="-1" y="82">扶뒬못</tspan>
                </text>
            </g>
        </g>
    </g>
</svg>