<?xml version="1.0" encoding="UTF-8"?>
<svg width="69px" height="69px" viewBox="0 0 69 69" version="1.1" xmlns="http://www.w3.org/2000/svg" xmlns:xlink="http://www.w3.org/1999/xlink">
    <!-- Generator: Sketch 47 (45396) - http://www.bohemiancoding.com/sketch -->
    <title>icon_default_head</title>
    <desc>Created with Sketch.</desc>
    <defs>
        <linearGradient x1="50%" y1="0%" x2="50%" y2="81.2420281%" id="linearGradient-1">
            <stop stop-color="#FFCE53" offset="0%"></stop>
            <stop stop-color="#F39C11" offset="100%"></stop>
        </linearGradient>
        <circle id="path-2" cx="34.5" cy="34.5" r="34.5"></circle>
        <linearGradient x1="50%" y1="12.0658077%" x2="50%" y2="58.4482621%" id="linearGradient-4">
            <stop stop-color="#F8C57B" offset="0%"></stop>
            <stop stop-color="#FCF5EC" offset="100%"></stop>
        </linearGradient>
        <linearGradient x1="50%" y1="90.7684949%" x2="50%" y2="0%" id="linearGradient-5">
            <stop stop-color="#F8C57B" offset="0%"></stop>
            <stop stop-color="#FCF5EC" offset="100%"></stop>
        </linearGradient>
        <linearGradient x1="50%" y1="-2.77555756e-15%" x2="50%" y2="90.7684949%" id="linearGradient-6">
            <stop stop-color="#F8C57B" offset="0%"></stop>
            <stop stop-color="#FCF5EC" offset="100%"></stop>
        </linearGradient>
        <linearGradient x1="50%" y1="90.7684949%" x2="50%" y2="10.9114021%" id="linearGradient-7">
            <stop stop-color="#F8C57B" offset="0%"></stop>
            <stop stop-color="#FCF5EC" offset="100%"></stop>
        </linearGradient>
    </defs>
    <g id="账号体系" stroke="none" stroke-width="1" fill="none" fill-rule="evenodd">
        <g id="个人资料_资料为空" transform="translate(-274.000000, -127.000000)">
            <g id="list" transform="translate(0.000000, 118.000000)">
                <g id="头像">
                    <g id="icon_default_head" transform="translate(274.000000, 9.000000)">
                        <mask id="mask-3" fill="white">
                            <use xlink:href="#path-2"></use>
                        </mask>
                        <use id="portraits" fill="url(#linearGradient-1)" xlink:href="#path-2"></use>
                        <g id="pic_no_upload" mask="url(#mask-3)">
                            <g transform="translate(6.160714, 12.321429)" id="Group-4">
                                <g>
                                    <ellipse id="身体" fill="url(#linearGradient-4)" cx="28.5446429" cy="52.3660714" rx="18.6875" ry="14.1696429"></ellipse>
                                    <path d="M37.5164742,40.7186411 C38.5108836,40.7186411 39.6099676,40.6092627 39.6623049,40.6092627 C46.4661585,38.8592083 51.3335307,34.64814 51.3335307,25.9525572 L51.3335307,24.8587733 C51.3335307,11.0224058 41.1277503,1.28772825 28.6714646,1.28772825 L28.6714646,1.28772825 C16.2151788,1.28772825 6.0093985,11.077095 6.0093985,24.8587733 L6.0093985,25.9525572 C6.0093985,34.7575184 10.144048,38.6951407 16.3721908,40.3905059 C16.4768655,40.3905059 18.1516602,40.8280195 19.3030816,40.7733303" id="头部" fill="url(#linearGradient-5)"></path>
                                    <path d="M28.5446429,36.9642857 C19.9195852,36.9642857 11.5,36.1011795 11.5,25.875 L11.5,25.0535714 C11.5,16.0974236 18.6874507,9.44642857 28.5446429,9.44642857 C38.4016014,9.44642857 45.5890521,16.0974236 45.5892857,25.0535714 L45.5892857,25.875 C45.6403911,36.1011795 37.2208059,36.9642857 28.5446429,36.9642857 Z" id="脸" fill="#FFFDFB" fill-rule="nonzero"></path>
                                    <g id="五官" transform="translate(16.839286, 18.892857)">
                                        <path d="M1.45502381,2.25875862 C1.39050744,2.25875862 1.32599107,2.24108374 1.26770387,2.20392118 C1.10174107,2.09832512 1.05190774,1.87625616 1.15557887,1.70721182 C1.64056399,0.917280788 2.43611756,0.381596059 3.33890179,0.237477833 C4.24124107,0.0933596059 5.15959821,0.355310345 5.85815476,0.955802956 C6.00765476,1.08405911 6.02634226,1.3115665 5.90042411,1.46384236 C5.77406101,1.61611823 5.55159077,1.63515271 5.40164583,1.50689655 C4.85970833,1.04100493 4.14780357,0.837517241 3.44835714,0.94991133 C2.74846577,1.06139901 2.13177827,1.47698522 1.75535863,2.08971429 C1.68817262,2.19893596 1.5724881,2.25875862 1.45502381,2.25875862 Z" id="XMLID_45_" fill="#171518" fill-rule="nonzero"></path>
                                        <path d="M22.0273259,2.25875862 C21.9094167,2.25875862 21.7941771,2.19893596 21.7269911,2.08926108 C21.3505714,1.47653202 20.7338839,1.06139901 20.0339926,0.949458128 C19.3349911,0.837517241 18.6230863,1.04055172 18.0811488,1.50644335 C17.9316488,1.63469951 17.7087336,1.61566502 17.5823705,1.46338916 C17.4564524,1.3115665 17.4751399,1.08405911 17.6246399,0.955349754 C18.3236414,0.354857143 19.2415536,0.0933596059 20.1443378,0.237024631 C21.0466771,0.381142857 21.8422307,0.916827586 22.3276607,1.70675862 C22.4308869,1.87580296 22.3810536,2.09787192 22.2150908,2.20346798 C22.1559137,2.24108374 22.0913973,2.25875862 22.0273259,2.25875862 Z" id="XMLID_44_" fill="#171518" fill-rule="nonzero"></path>
                                        <ellipse id="XMLID_43_" fill="#F5CDC8" fill-rule="nonzero" opacity="0.72" cx="1.64285714" cy="6.57142857" rx="1.64285714" ry="1.23214286"></ellipse>
                                        <ellipse id="XMLID_42_" fill="#F5CDC8" fill-rule="nonzero" opacity="0.72" cx="21.7678571" cy="6.57142857" rx="1.64285714" ry="1.23214286"></ellipse>
                                        <path d="M11.7053571,14.7857143 C13.0663446,14.7857143 14.1696429,13.7066783 14.1696429,12.37562 C14.1696429,11.4882478 13.3482143,10.5118507 11.7053571,9.44642857 C10.0625,10.5118507 9.24107143,11.4882478 9.24107143,12.37562 C9.24107143,13.7066783 10.3443697,14.7857143 11.7053571,14.7857143 Z" id="Oval-2" fill="url(#linearGradient-6)"></path>
                                    </g>
                                    <path d="M50.6434139,16.1851014 C47.6323925,6.40137703 38.8758808,0 28.569678,0 C18.2533477,0 9.47478955,6.4029601 6.48023976,16.1740326 C4.15667375,16.7912991 0,18.6418696 0,23.9604115 C0,31.1126519 7.90486648,32.1932062 8.00686476,32.1932062 C8.0578639,32.1932062 8.0578639,32.1932062 8.0578639,32.1932062 C9.12884581,31.8330215 10.301826,29.1573632 10.301826,24.0633215 C10.301826,19.868289 9.16370906,16.733216 8.22577319,16.0083621 C11.3052942,7.39552623 19.2417666,1.84655372 28.569678,1.84655372 C37.8487982,1.84655372 45.8001734,7.38800523 48.8661844,15.974667 C47.9625848,16.6265103 46.7874597,19.7491748 46.7874597,24.0118665 C46.7874597,29.1059082 47.9604399,31.8330215 49.082421,32.1932062 C49.082421,32.1932062 49.1334201,32.1932062 49.082421,32.1932062 C49.1844192,32.1932062 57.0892857,31.1126519 57.0892857,23.9604115 C57.0892857,18.6860275 52.996719,16.8168482 50.6434139,16.1851014 Z" id="耳机" fill="url(#linearGradient-7)" fill-rule="nonzero"></path>
                                </g>
                            </g>
                        </g>
                    </g>
                </g>
            </g>
        </g>
    </g>
</svg>