<?xml version="1.0" encoding="UTF-8"?>
<svg width="40px" height="46px" viewBox="0 0 40 46" version="1.1" xmlns="http://www.w3.org/2000/svg" xmlns:xlink="http://www.w3.org/1999/xlink">
    <!-- Generator: Sketch 51.3 (57544) - http://www.bohemiancoding.com/sketch -->
    <title>icon_playing_suspension</title>
    <desc>Created with Sketch.</desc>
    <defs></defs>
    <g id="Symbols" stroke="none" stroke-width="1" fill="none" fill-rule="evenodd">
        <g id="ic_playing_player" transform="translate(-36.000000, -33.000000)" fill="#F3A01B" fill-rule="nonzero">
            <g id="icon_playing_suspension">
                <g transform="translate(36.000000, 33.000000)">
                    <path d="M0,11 C-1.33226763e-15,9.34314575 1.34314575,8 3,8 C4.65685425,8 6,9.34314575 6,11 L6,43 C6,44.6568542 4.65685425,46 3,46 C1.34314575,46 2.28705943e-14,44.6568542 2.17603713e-14,43 L0,11 Z M17,3 C17,1.34314575 18.3431458,8.8817842e-16 20,0 C21.6568542,-8.8817842e-16 23,1.34314575 23,3 L23,43 C23,44.6568542 21.6568542,46 20,46 C18.3431458,46 17,44.6568542 17,43 L17,3 Z M34,11 C34,9.34314575 35.3431458,8 37,8 C38.6568542,8 40,9.34314575 40,11 L40,43 C40,44.6568542 38.6568542,46 37,46 C35.3431458,46 34,44.6568542 34,43 L34,11 Z"></path>
                </g>
            </g>
        </g>
    </g>
</svg>